# xmcd
#
# Track frame offsets: 
#        150
#        13993
#        23964
#        34628
#        47033
#        60801
#        73165
#        86367
#        99744
#        112956
#        127609
#        139183
#        153510
#        167068
#        179956
#        193996
#        206635
#        218607
#        231070
#        245234
#        258900
#        271802
#        284773
#        298950
#        311577
#
# Disc length: 4339 seconds
#
# Revision: 1
# Processed by: cddbd v1.5.2PL0 Copyright (c) Steve Scherf et al.
# Submitted via: ExactAudioCopyFreeDBPlugin 1.0
#
DISCID=7b10f119
DTITLE=Various Artist - Blind Man Blues - Blues From Within [CD 2)
DYEAR=2011
DGENRE=Blues
TTITLE0=Ray Charles - Misery In My Heart
TTITLE1=Blind John Davis - Magic Carpet
TTITLE2=Sleepy John Estes - Time Is Drawing Near
TTITLE3=Blind Boy Fuller - Lost Lover Blues
TTITLE4=Rev. Gary Davis - Cross And Evil Woman Blues
TTITLE5=Blind Roosevelt Graves - Dangerous Woman
TTITLE6=Bo Carter - My Pencil Won't Write No More
TTITLE7=Blind Lemon Jefferson - Got The Blues
TTITLE8=Blind Joe Reynolds - Outside Woman Blues
TTITLE9=Blind Willie Johnson - Soul Of A Man
TTITLE10=Blind Willie McTell - Statesboro Blues
TTITLE11=Sleepy John Estes - Floating Bridge
TTITLE12=Blind Lemon Jefferson - Long Lonesome Blues
TTITLE13=Rev. Gary Davis - I Cannot Bear My Burden By Myself
TTITLE14=Blind Boy Fuller - Rattlesnakin' Daddy
TTITLE15=Blind Willie Johnson - Sweeter As The Years Roll By
TTITLE16=Blind Joe Reynolds - Ninety Nine Blues
TTITLE17=Blind Blake - One Time Blues
TTITLE18=Bo Carter - Banana In Your Fruit Basket
TTITLE19=Blind Willie Johnson - When The War Was On
TTITLE20=Blind Lemon Jefferson - Bad Luck Blues
TTITLE21=Sleepy John Estes - Poor John Blues
TTITLE22=Blind Boy Fuller - Homesick And Lonesome Blues
TTITLE23=Blind Roosevelt Graves - Skippy Whippy
TTITLE24=Ray Charles - Late In The Evening Blues
EXTD=
EXTT0=
EXTT1=
EXTT2=
EXTT3=
EXTT4=
EXTT5=
EXTT6=
EXTT7=
EXTT8=
EXTT9=
EXTT10=
EXTT11=
EXTT12=
EXTT13=
EXTT14=
EXTT15=
EXTT16=
EXTT17=
EXTT18=
EXTT19=
EXTT20=
EXTT21=
EXTT22=
EXTT23=
EXTT24=
PLAYORDER=
